<?xml version="1.0" encoding="utf-8"?>
<!-- Generator: Adobe Illustrator 21.1.0, SVG Export Plug-In . SVG Version: 6.00 Build 0)  -->
<svg version="1.1"
	 id="Layer_1" inkscape:version="0.92.1 r15371" sodipodi:docname="Untitled-2.svg" xmlns:cc="http://creativecommons.org/ns#" xmlns:dc="http://purl.org/dc/elements/1.1/" xmlns:inkscape="http://www.inkscape.org/namespaces/inkscape" xmlns:rdf="http://www.w3.org/1999/02/22-rdf-syntax-ns#" xmlns:sodipodi="http://sodipodi.sourceforge.net/DTD/sodipodi-0.dtd" xmlns:svg="http://www.w3.org/2000/svg"
	 xmlns="http://www.w3.org/2000/svg" xmlns:xlink="http://www.w3.org/1999/xlink" x="0px" y="0px" viewBox="0 0 837.8 837.8" width="837.8" height="837.8"
	 style="enable-background:new 0 0 837.8 837.8;" xml:space="preserve">
<style type="text/css">
	.st0{fill:#0e76bc;}
	.st1{fill:#FFFFFF;}
</style>
<sodipodi:namedview  bordercolor="#666666" borderopacity="1" gridtolerance="10" guidetolerance="10" id="namedview15" inkscape:current-layer="Layer_1" inkscape:cx="740.88542" inkscape:cy="310.23016" inkscape:pageopacity="0" inkscape:pageshadow="2" inkscape:window-height="1017" inkscape:window-maximized="1" inkscape:window-width="1920" inkscape:window-x="-8" inkscape:window-y="-8" inkscape:zoom="0.52444444" objecttolerance="10" pagecolor="#ffffff" showgrid="false">
	</sodipodi:namedview>
<g>
	<circle id="circle4" class="st0" cx="418.9" cy="418.9" r="413.9"/>
	<path id="path6" inkscape:connector-curvature="0" class="st1" d="M418.9,5c-0.1,0-0.2,0-0.3,0h-0.1c-0.1,0-0.1,0-0.2,0h-0.1
		c-0.1,0-0.1,0-0.2,0h-0.1c-0.1,0-0.2,0-0.3,0h-0.1c-0.1,0-0.1,0-0.2,0h-0.1c-0.1,0-0.1,0-0.2,0h-0.1c-0.1,0-0.2,0-0.3,0l0,0
		c-0.1,0-0.2,0-0.3,0h-0.1c-0.1,0-0.1,0-0.2,0h-0.1c-0.1,0-0.1,0-0.2,0h-0.1c-0.1,0-0.2,0-0.3,0l0,0c-0.1,0-0.2,0-0.3,0h-0.1
		c-0.1,0-0.1,0-0.2,0h-0.1c-0.1,0-0.2,0-0.3,0l0,0c-0.1,0-0.2,0-0.3,0h-0.1c-0.1,0-0.1,0-0.2,0h-0.1c-0.1,0-0.1,0-0.2,0h-0.1
		c-0.1,0-0.2,0-0.3,0l0,0c-0.1,0-0.2,0-0.3,0h-0.1c-0.1,0-0.1,0-0.2,0h-0.1c-0.1,0-0.2,0-0.2,0H412c-0.1,0-0.2,0-0.3,0h-0.1
		c-0.1,0-0.1,0-0.2,0h-0.1c-0.1,0-0.1,0-0.2,0H411c-0.2,0-0.4,0-0.6,0h-0.1c-0.1,0-0.1,0-0.2,0H410c-0.1,0-0.2,0-0.2,0s0,0-0.1,0
		s-0.2,0-0.3,0c0,0,0,0-0.1,0s-0.1,0-0.2,0H409c-0.1,0-0.1,0-0.2,0h-0.1c-0.1,0-0.2,0-0.3,0c0,0,0,0-0.1,0s-0.2,0-0.3,0h-0.1
		c-0.1,0-0.1,0-0.2,0h-0.1c-0.1,0-0.1,0-0.2,0h-0.1c-0.1,0-0.2,0-0.3,0c0,0,0,0-0.1,0s-0.1,0-0.2,0h-0.1c-0.1,0-0.1,0-0.2,0h-0.1
		c-0.1,0-0.1,0-0.2,0c0,0,0,0-0.1,0s-0.2,0-0.3,0h-0.1c-0.1,0-0.1,0-0.2,0h-0.1c-0.1,0-0.1,0-0.2,0H405c-0.1,0-0.2,0-0.3,0l0,0
		c-0.1,0-0.2,0-0.3,0h-0.1c-0.1,0-0.1,0-0.2,0H404c-0.1,0-0.2,0-0.2,0h-0.1c-0.1,0-0.2,0-0.3,0h-0.1c-0.1,0-0.1,0-0.2,0H403
		c-0.1,0-0.1,0-0.2,0h-0.1c-0.1,0-0.2,0-0.3,0l0,0c-0.1,0-0.2,0-0.3,0H402c-0.1,0-0.1,0-0.2,0h-0.1c-0.1,0-0.1,0-0.2,0h-0.1
		c-0.1,0-0.2,0-0.3,0H401c-0.1,0-0.1,0-0.2,0h-0.1c-0.1,0-0.1,0-0.2,0h-0.1c-0.1,0-0.1,0-0.2,0h-0.1c-0.1,0-0.2,0-0.2,0h-0.1
		c-0.1,0-0.1,0-0.2,0h-0.1c-0.1,0-0.1,0-0.2,0h-0.1c-0.1,0-0.2,0-0.3,0h-0.1c-0.1,0-0.1,0-0.2,0h-0.1c-0.1,0-0.1,0-0.2,0h-0.1
		c-0.1,0-0.1,0-0.2,0s-0.1,0-0.2,0s-0.1,0-0.2,0h-0.1c-0.1,0-0.1,0-0.2,0h-0.1c-0.1,0-0.1,0-0.2,0h-0.1c-0.1,0-0.1,0-0.2,0
		s-0.1,0-0.2,0s-0.1,0-0.2,0h-0.1c-0.1,0-0.1,0-0.2,0h-0.1c-0.1,0-0.1,0-0.2,0s-0.1,0-0.2,0s-0.2,0-0.2,0c-0.1,0-0.1,0-0.2,0H395
		c-0.1,0-0.1,0-0.2,0s-0.1,0-0.1,0h-0.1c-0.1,0-0.1,0-0.2,0s-0.1,0-0.2,0s-0.1,0-0.2,0s-0.1,0-0.1,0c-0.1,0-0.1,0-0.2,0
		s-0.1,0-0.1,0s-0.1,0-0.2,0h-0.1c-0.1,0-0.2,0-0.3,0h-0.1c0,0-0.1,0-0.2,0s-0.1,0-0.2,0s-0.1,0-0.1,0h-0.1c-0.1,0-0.1,0-0.2,0
		s-0.1,0-0.2,0s-0.1,0-0.2,0h-0.1c-0.1,0-0.1,0-0.1,0c-0.1,0-0.1,0-0.2,0h-0.1h-0.1c-0.1,0-0.2,0-0.3,0h-0.1c-0.1,0-0.1,0-0.2,0
		h-0.1c-0.1,0-0.1,0-0.2,0s-0.1,0-0.2,0s-0.1,0-0.1,0c-0.1,0-0.2,0-0.3,0c-0.1,0-0.1,0-0.2,0s-0.1,0-0.2,0h-0.1c-0.1,0-0.1,0-0.2,0
		h-0.1c-0.1,0-0.1,0-0.2,0s-0.1,0-0.1,0c-0.1,0-0.2,0-0.3,0c-0.1,0-0.1,0-0.1,0c-0.1,0-0.1,0-0.2,0h-0.1c-0.1,0-0.1,0-0.2,0h-0.1
		c-0.1,0-0.3,0-0.4,0c0,0,0,0-0.1,0s-0.1,0-0.2,0h-0.1c-0.1,0-0.1,0-0.2,0h-0.1c-0.1,0-0.1,0-0.2,0h-0.1c-0.1,0-0.2,0-0.3,0h-0.1
		c-0.1,0-0.1,0-0.2,0h-0.1c-0.1,0-0.1,0-0.2,0h-0.1c-0.2,0-0.4,0-0.6,0.1h-0.1c-0.1,0-0.1,0-0.2,0h-0.1c-0.1,0-0.1,0-0.2,0h-0.1
		c-0.1,0-0.3,0-0.4,0c0,0,0,0-0.1,0s-0.1,0-0.2,0H383c-0.1,0-0.1,0-0.2,0h-0.1c-0.2,0-0.4,0-0.7,0.1c0,0,0,0-0.1,0s-0.1,0-0.2,0
		h-0.1c-0.1,0-0.1,0-0.2,0l0,0c-0.2,0-0.5,0-0.7,0.1h-0.1c-0.1,0-0.1,0-0.2,0c0,0,0,0-0.1,0c-0.2,0-0.5,0-0.7,0.1c0,0,0,0-0.1,0
		s-0.1,0-0.2,0c0,0,0,0-0.1,0s-0.1,0-0.2,0l0,0c-0.2,0-0.5,0-0.7,0.1c0,0,0,0-0.1,0s-0.1,0-0.2,0c0,0,0,0-0.1,0
		c-0.3,0-0.6,0.1-1,0.1l0,0c-0.1,0-0.2,0-0.2,0l0,0c-0.2,0-0.5,0-0.7,0.1l0,0c-0.1,0-0.2,0-0.2,0l0,0c-0.3,0-0.6,0.1-1,0.1l0,0
		c-0.1,0-0.2,0-0.2,0l0,0c-0.2,0-0.5,0.1-0.7,0.1l0,0c-0.1,0-0.2,0-0.2,0s0,0-0.1,0c-0.3,0-0.6,0.1-1,0.1l0,0c-0.1,0-0.2,0-0.2,0
		l0,0c-0.3,0-0.7,0.1-1,0.1l0,0c-0.4,0-0.8,0.1-1.3,0.1l0,0c-0.3,0-0.7,0.1-1,0.1l0,0c-26.9,3.2-52.9,9-77.9,17.2l25.9,79.9
		c32.8-10.6,67.1-16,102-16V5H418.9z M175.7,84c-0.1,0-0.1,0.1-0.2,0.1l0,0c-0.2,0.1-0.3,0.2-0.5,0.4l0,0c-0.1,0.1-0.1,0.1-0.2,0.2
		l0,0c-0.1,0-0.1,0.1-0.2,0.2l0,0c-0.3,0.2-0.5,0.3-0.7,0.5l0,0c-0.1,0-0.1,0.1-0.2,0.1l0,0c-0.1,0-0.1,0.1-0.2,0.1l0,0
		c-0.2,0.1-0.3,0.2-0.5,0.4l0,0c-0.1,0-0.1,0.1-0.2,0.2l0,0c-0.1,0-0.1,0.1-0.2,0.1l0,0c-0.2,0.1-0.3,0.2-0.5,0.4l0,0
		c-0.1,0-0.1,0.1-0.2,0.1c0,0,0,0-0.1,0s-0.1,0.1-0.2,0.1c0,0,0,0-0.1,0.1c-0.1,0-0.1,0.1-0.2,0.1l0,0c-0.2,0.1-0.3,0.2-0.5,0.4l0,0
		c-0.1,0-0.1,0.1-0.2,0.1c0,0,0,0-0.1,0s-0.1,0.1-0.2,0.1l0,0c-0.2,0.1-0.3,0.2-0.5,0.4l0,0c-0.1,0.1-0.1,0.1-0.2,0.2c0,0,0,0-0.1,0
		s-0.1,0.1-0.2,0.1l0,0c-0.1,0-0.1,0.1-0.2,0.2l0,0c-0.2,0.1-0.3,0.2-0.5,0.4l0,0c-0.1,0-0.1,0.1-0.2,0.1c0,0,0,0-0.1,0
		s-0.1,0.1-0.2,0.1c0,0,0,0-0.1,0c-0.2,0.1-0.3,0.2-0.5,0.4c0,0,0,0-0.1,0s-0.1,0.1-0.2,0.1c0,0,0,0-0.1,0s-0.1,0.1-0.2,0.1
		c0,0,0,0-0.1,0s-0.1,0.1-0.2,0.2l0,0c-0.2,0.1-0.3,0.2-0.5,0.4l0,0c-0.1,0-0.1,0.1-0.2,0.1c0,0,0,0-0.1,0s-0.1,0.1-0.2,0.1l0,0
		c-0.1,0.1-0.1,0.1-0.2,0.2l0,0c-0.1,0.1-0.2,0.1-0.2,0.2l0,0c-0.1,0-0.1,0.1-0.2,0.2c0,0,0,0-0.1,0s-0.1,0.1-0.2,0.1c0,0,0,0-0.1,0
		s-0.1,0.1-0.2,0.1l0,0c-0.2,0.1-0.3,0.2-0.5,0.4c0,0,0,0-0.1,0.1c-0.1,0-0.1,0.1-0.2,0.1c0,0,0,0-0.1,0.1c-0.1,0-0.1,0.1-0.2,0.1
		c0,0,0,0-0.1,0.1s-0.1,0.1-0.2,0.2l0,0c-0.1,0.1-0.2,0.1-0.2,0.2l0,0c-0.1,0-0.1,0.1-0.2,0.1c0,0,0,0-0.1,0s-0.1,0.1-0.2,0.1
		c0,0,0,0-0.1,0.1c-0.1,0-0.1,0.1-0.2,0.1c0,0,0,0-0.1,0c-0.1,0.1-0.1,0.1-0.2,0.2l0,0c-0.1,0-0.1,0.1-0.2,0.2c0,0,0,0-0.1,0.1
		c-0.1,0-0.1,0.1-0.2,0.1c0,0-0.1,0-0.1,0.1c-0.1,0-0.1,0.1-0.2,0.1c0,0,0,0-0.1,0.1c-0.1,0-0.1,0.1-0.2,0.2l0,0
		c-0.1,0.1-0.1,0.1-0.2,0.2c0,0,0,0-0.1,0.1c-0.1,0-0.1,0.1-0.2,0.1c0,0-0.1,0-0.1,0.1c-0.1,0-0.1,0.1-0.2,0.1c0,0,0,0-0.1,0.1
		c-0.1,0-0.1,0.1-0.2,0.1c0,0,0,0-0.1,0.1s-0.1,0.1-0.2,0.2l0,0c-0.1,0-0.1,0.1-0.2,0.1c0,0-0.1,0-0.1,0.1c-0.1,0-0.1,0.1-0.1,0.1
		s-0.1,0-0.1,0.1c-0.1,0-0.1,0.1-0.1,0.1s-0.1,0-0.1,0.1c-0.1,0-0.1,0.1-0.2,0.1l0,0c-0.1,0.1-0.1,0.1-0.2,0.2c0,0-0.1,0-0.1,0.1
		c-0.1,0-0.1,0.1-0.1,0.1s-0.1,0-0.1,0.1l-0.1,0.1c0,0-0.1,0-0.1,0.1c-0.1,0-0.1,0.1-0.2,0.1c0,0,0,0-0.1,0.1s-0.1,0.1-0.2,0.2
		c0,0,0,0-0.1,0.1c-0.1,0-0.1,0.1-0.2,0.1c0,0-0.1,0-0.1,0.1l-0.1,0.1c0,0-0.1,0-0.1,0.1c-0.1,0-0.1,0.1-0.1,0.1s-0.1,0-0.1,0.1
		c-0.1,0-0.1,0.1-0.2,0.1L156,98c-0.1,0-0.1,0.1-0.2,0.2c0,0-0.1,0-0.1,0.1c-0.1,0-0.1,0.1-0.1,0.1l-0.1,0.1l-0.1,0.1l-0.1,0.1
		l-0.1,0.1l-0.1,0.1c-0.1,0-0.1,0.1-0.2,0.2l-0.1,0.1l-0.1,0.1l-0.1,0.1l-0.1,0.1l-0.1,0.1l-0.1,0.1l-0.1,0.1l-0.1,0.1L154,100
		l-0.1,0.1l-0.1,0.1l-0.1,0.1l-0.1,0.1l-0.1,0.1l-0.1,0.1l-0.1,0.1l-0.1,0.1c-0.1,0.1-0.1,0.1-0.2,0.2c0,0,0,0-0.1,0.1l-0.1,0.1
		l-0.1,0.1l-0.1,0.1l-0.1,0.1l-0.1,0.1l-0.1,0.1l-0.1,0.1l-0.1,0.1c0,0-0.1,0.1-0.2,0.1l-0.1,0.1l-0.1,0.1l-0.1,0.1l-0.1,0.1
		l-0.1,0.1l-0.1,0.1l-0.1,0.1c-0.1,0.1-0.1,0.1-0.2,0.2l-0.1,0.1l-0.1,0.1l-0.1,0.1l-0.1,0.1l-0.1,0.1l-0.1,0.1l-0.1,0.1l-0.1,0.1
		l-0.1,0.1l-0.1,0.1l-0.1,0.1l-0.1,0.1l-0.1,0.1l-0.1,0.1l-0.1,0.1l-0.1,0.1l-0.1,0.1l-0.1,0.1c-0.1,0.1-0.1,0.1-0.2,0.1l-0.1,0.1
		l-0.1,0.1l-0.1,0.1l-0.1,0.1l-0.1,0.1l-0.1,0.1c0,0,0,0-0.1,0.1s-0.2,0.1-0.3,0.2c0,0,0,0-0.1,0.1l-0.1,0.1l-0.1,0.1l-0.1,0.1
		l-0.1,0.1l-0.1,0.1c0,0-0.1,0-0.1,0.1l-0.1,0.1c-0.1,0.1-0.1,0.1-0.2,0.2l-0.1,0.1l-0.1,0.1l-0.1,0.1l-0.1,0.1l-0.1,0.1
		c0,0,0,0-0.1,0.1l-0.1,0.1l0,0c-0.1,0.1-0.2,0.2-0.3,0.3l0,0l-0.1,0.1c0,0-0.1,0-0.1,0.1l-0.1,0.1c0,0,0,0-0.1,0.1l-0.1,0.1
		c0,0,0,0-0.1,0.1c-0.2,0.1-0.3,0.3-0.5,0.4c0,0,0,0-0.1,0l-0.1,0.1c0,0,0,0-0.1,0.1l-0.1,0.1c0,0,0,0-0.1,0.1l-0.1,0.1l0,0
		c-0.1,0.1-0.2,0.2-0.3,0.3l0,0c0,0-0.1,0.1-0.2,0.1c0,0,0,0-0.1,0l-0.1,0.1c0,0,0,0-0.1,0.1l-0.1,0.1l0,0c-0.2,0.2-0.3,0.3-0.5,0.5
		l0,0c-0.1,0-0.1,0.1-0.2,0.1l0,0c-0.1,0-0.1,0.1-0.2,0.1l0,0c-0.2,0.2-0.5,0.4-0.7,0.6l0,0c-0.1,0-0.1,0.1-0.2,0.1l0,0
		c-0.1,0-0.1,0.1-0.2,0.1l0,0c-0.2,0.2-0.4,0.3-0.5,0.5l0,0c-0.1,0-0.1,0.1-0.2,0.1l0,0c-0.1,0-0.1,0.1-0.2,0.1l0,0
		c-0.2,0.2-0.4,0.3-0.5,0.5l0,0c-0.1,0-0.1,0.1-0.2,0.1l0,0c-0.1,0-0.1,0.1-0.2,0.1l0,0c-0.1,0-0.1,0.1-0.2,0.1l0,0
		c-0.2,0.2-0.4,0.3-0.5,0.5l0,0c-0.1,0.1-0.1,0.1-0.2,0.1l0,0c-0.1,0-0.1,0.1-0.2,0.1l0,0c-0.2,0.2-0.5,0.4-0.7,0.7l0,0
		c-0.1,0.1-0.1,0.1-0.2,0.2l0,0c-0.3,0.3-0.6,0.6-0.9,0.9l0,0c-0.3,0.3-0.6,0.6-0.9,0.9l0,0c-0.1,0.1-0.1,0.1-0.2,0.2l0,0
		c-18.7,17.6-35.8,37-50.9,57.8l67.9,49.4c20.4-28.1,45-52.6,73.1-73L175.7,84z M162.4,744.6c0,0.1,0.1,0.1,0.2,0.2l0,0
		c0.2,0.2,0.3,0.2,0.5,0.4l0,0c0.1,0.1,0.1,0.1,0.2,0.1l0,0c0,0.1,0.1,0.1,0.2,0.1l0,0c0.3,0.2,0.4,0.4,0.7,0.5l0,0
		c0,0.1,0.1,0.1,0.2,0.2l0,0c0,0.1,0.1,0.1,0.2,0.2l0,0c0.2,0.2,0.3,0.2,0.5,0.4l0,0c0,0.1,0.1,0.1,0.2,0.1l0,0
		c0,0.1,0.1,0.1,0.2,0.2l0,0c0.2,0.2,0.3,0.2,0.5,0.4l0,0c0,0.1,0.1,0.1,0.2,0.2c0,0,0,0,0,0.1s0.1,0.1,0.2,0.2c0,0,0,0,0.1,0.1
		c0,0.1,0.1,0.1,0.2,0.2l0,0c0.2,0.2,0.3,0.2,0.5,0.4l0,0c0,0.1,0.1,0.1,0.2,0.2c0,0,0,0,0,0.1s0.1,0.1,0.2,0.2l0,0
		c0.2,0.2,0.3,0.2,0.5,0.4l0,0c0.1,0.1,0.1,0.1,0.2,0.1c0,0,0,0,0,0.1s0.1,0.1,0.2,0.2l0,0c0,0.1,0.1,0.1,0.2,0.1l0,0
		c0.2,0.2,0.3,0.2,0.5,0.4l0,0c0,0.1,0.1,0.1,0.2,0.2c0,0,0,0,0,0.1s0.1,0.1,0.2,0.2c0,0,0,0,0,0.1c0.2,0.2,0.3,0.2,0.5,0.4
		c0,0,0,0,0,0.1s0.1,0.1,0.2,0.2c0,0,0,0,0,0.1s0.1,0.1,0.2,0.2c0,0,0,0,0,0.1s0.1,0.1,0.2,0.1l0,0c0.2,0.2,0.3,0.2,0.5,0.4l0,0
		c0,0.1,0.1,0.1,0.2,0.2c0,0,0,0,0,0.1s0.1,0.1,0.2,0.2l0,0c0.1,0.1,0.1,0.1,0.2,0.1l0,0c0.1,0.1,0.2,0.2,0.2,0.1l0,0
		c0,0.1,0.1,0.1,0.2,0.1c0,0,0,0,0,0.1s0.1,0.1,0.2,0.2c0,0,0,0,0,0.1s0.1,0.1,0.2,0.2l0,0c0.2,0.2,0.3,0.2,0.5,0.4c0,0,0,0,0.1,0.1
		c0,0.1,0.1,0.1,0.2,0.2c0,0,0,0,0.1,0.1c0,0.1,0.1,0.1,0.2,0.2c0,0,0,0,0.1,0.1s0.1,0.1,0.2,0.1l0,0c0.1,0.1,0.2,0.2,0.2,0.1l0,0
		c0,0.1,0.1,0.1,0.2,0.2c0,0,0,0,0,0.1s0.1,0.1,0.2,0.2c0,0,0,0,0.1,0.1c0,0.1,0.1,0.1,0.2,0.2c0,0,0,0,0,0.1
		c0.1,0.1,0.1,0.1,0.2,0.1l0,0c0,0.1,0.1,0.1,0.2,0.1c0,0,0,0,0.1,0.1c0,0.1,0.1,0.1,0.2,0.2c0,0,0,0.1,0.1,0.1
		c0,0.1,0.1,0.1,0.2,0.2c0,0,0,0,0.1,0.1c0,0.1,0.1,0.1,0.2,0.1l0,0c0.1,0.1,0.1,0.1,0.2,0.1c0,0,0,0,0.1,0.1c0,0.1,0.1,0.1,0.2,0.2
		c0,0,0,0.1,0.1,0.1c0,0.1,0.1,0.1,0.2,0.2c0,0,0,0,0.1,0.1c0,0.1,0.1,0.1,0.2,0.2c0,0,0,0,0.1,0.1s0.1,0.1,0.2,0.1l0,0
		c0,0.1,0.1,0.1,0.2,0.2c0,0,0,0.1,0.1,0.1c0,0.1,0.1,0.1,0.1,0.1s0,0.1,0.1,0.1c0,0.1,0.1,0.1,0.1,0.1s0,0.1,0.1,0.1
		c0,0.1,0.1,0.1,0.2,0.2l0,0c0.1,0.1,0.1,0.1,0.2,0.1c0,0,0,0.1,0.1,0.1c0,0.1,0.1,0.1,0.1,0.1s0,0.1,0.1,0.1l0.1,0.1
		c0,0,0,0.1,0.1,0.1c0,0.1,0.1,0.1,0.2,0.2c0,0,0,0,0.1,0.1s0.1,0.1,0.2,0.1c0,0,0,0,0.1,0.1c0,0.1,0.1,0.1,0.2,0.2
		c0,0,0,0.1,0.1,0.1l0.1,0.1c0,0,0,0.1,0.1,0.1c0,0.1,0.1,0.1,0.1,0.1s0,0.1,0.1,0.1c0,0.1,0.1,0.1,0.2,0.2l0.1,0.1
		c0,0.1,0.1,0.1,0.2,0.1c0,0,0,0.1,0.1,0.1c0,0.1,0.1,0.1,0.1,0.1l0.1,0.1l0.1,0.1l0.1,0.1l0.1,0.1l0.1,0.1c0,0.1,0.1,0.1,0.2,0.1
		l0.1,0.1l0.1,0.1l0.1,0.1l0.1,0.1l0.1,0.1l0.1,0.1l0.1,0.1l0.1,0.1l0.1,0.1l0.1,0.1l0.1,0.1l0.1,0.1l0.1,0.1l0.1,0.1l0.1,0.1
		l0.1,0.1l0.1,0.1c0.1,0.1,0.1,0.1,0.2,0.1c0,0,0,0,0.1,0.1l0.1,0.1l0.1,0.1l0.1,0.1l0.1,0.1l0.1,0.1l0.1,0.1l0.1,0.1l0.1,0.1
		c0,0,0.1,0.1,0.2,0.2l0.1,0.1l0.1,0.1l0.1,0.1l0.1,0.1l0.1,0.1l0.1,0.1l0.1,0.1c0.1,0.1,0.1,0.1,0.2,0.1l0.1,0.1l0.1,0.1l0.1,0.1
		l0.1,0.1l0.1,0.1l0.1,0.1l0.1,0.1l0.1,0.1l0.1,0.1l0.1,0.1l0.1,0.1l0.1,0.1l0.1,0.1l0.1,0.1l0.1,0.1l0.1,0.1l0.1,0.1l0.1,0.1
		c0.1,0.1,0.1,0.1,0.2,0.2l0.1,0.1l0.1,0.1l0.1,0.1l0.1,0.1l0.1,0.1l0.1,0.1c0,0,0,0,0.1,0.1s0.2,0.2,0.3,0.2c0,0,0,0,0.1,0.1
		l0.1,0.1l0.1,0.1l0.1,0.1l0.1,0.1l0.1,0.1c0,0,0,0.1,0.1,0.1l0.1,0.1c0.1,0.1,0.1,0.1,0.2,0.1l0.1,0.1l0.1,0.1l0.1,0.1l0.1,0.1
		l0.1,0.1c0,0,0,0,0.1,0.1l0.1,0.1l0,0c0.1,0.1,0.2,0.1,0.4,0.2l0,0l0.1,0.1c0,0,0,0.1,0.1,0.1l0.1,0.1c0,0,0,0,0.1,0.1l0.1,0.1
		c0,0,0,0,0.1,0.1c0.2,0.2,0.4,0.2,0.5,0.4c0,0,0,0,0,0.1l0.1,0.1c0,0,0,0,0.1,0.1l0.1,0.1c0,0,0,0,0.1,0.1l0.1,0.1l0,0
		c0.1,0.1,0.2,0.1,0.4,0.2l0,0c0,0,0.1,0.1,0.2,0.2c0,0,0,0,0,0.1l0.1,0.1c0,0,0,0,0.1,0.1l0.1,0.1l0,0c0.2,0.1,0.4,0.2,0.6,0.3l0,0
		c0,0.1,0.1,0.1,0.2,0.2l0,0c0,0.1,0.1,0.1,0.2,0.2l0,0c0.2,0.1,0.5,0.4,0.8,0.5l0,0c0,0.1,0.1,0.1,0.2,0.2l0,0
		c0,0.1,0.1,0.1,0.2,0.2l0,0c0.2,0.1,0.4,0.3,0.6,0.3l0,0c0,0.1,0.1,0.1,0.2,0.2l0,0c0,0.1,0.1,0.1,0.2,0.2l0,0
		c0.2,0.1,0.4,0.3,0.6,0.3l0,0c0,0.1,0.1,0.1,0.2,0.2l0,0c0,0.1,0.1,0.1,0.2,0.2l0,0c0,0.1,0.1,0.1,0.2,0.2l0,0
		c0.2,0.1,0.4,0.3,0.6,0.3l0,0c0.1,0.1,0.1,0.1,0.2,0.2l0,0c0,0.1,0.1,0.1,0.2,0.2l0,0c0.2,0.1,0.5,0.4,0.9,0.5l0,0
		c0.1,0.1,0.1,0.1,0.2,0.1l0,0c0.4,0.2,0.7,0.4,1.1,0.6l0,0c0.4,0.2,0.7,0.4,1.1,0.6l0,0c0.1,0.1,0.1,0.1,0.2,0.1l0,0
		c22.1,13.1,45.5,24.1,69.7,32.8l28.6-79c-32.7-11.8-63-28.6-90.4-49.9L162.4,744.6z M659,81.5c0-0.1-0.1-0.1-0.2-0.2l0,0
		c-0.2-0.2-0.3-0.2-0.5-0.4l0,0c-0.1-0.1-0.1-0.1-0.3-0.1l0,0c0-0.1-0.1-0.1-0.3-0.1l0,0c-0.3-0.2-0.4-0.4-0.7-0.5l0,0
		c0-0.1-0.1-0.1-0.2-0.2l0,0c0-0.1-0.1-0.1-0.2-0.2l0,0c-0.2-0.2-0.3-0.2-0.5-0.4l0,0c0-0.1-0.1-0.1-0.3-0.1l0,0
		c0-0.1-0.1-0.1-0.2-0.2l0,0c-0.2-0.2-0.3-0.2-0.5-0.4l0,0c0-0.1-0.1-0.1-0.2-0.2c0,0,0,0,0-0.1s-0.1-0.1-0.2-0.2c0,0,0,0-0.1-0.1
		c0-0.1-0.1-0.1-0.2-0.2l0,0c-0.2-0.2-0.3-0.2-0.5-0.4l0,0c0-0.1-0.1-0.1-0.2-0.2c0,0,0,0,0-0.1s-0.1-0.1-0.2-0.2l0,0
		c-0.2-0.2-0.3-0.2-0.5-0.4l0,0c-0.1-0.1-0.1-0.1-0.3-0.1c0,0,0,0,0-0.1s-0.1-0.1-0.2-0.2l0,0c0-0.1-0.1-0.1-0.3-0.1l0,0
		c-0.2-0.2-0.3-0.2-0.5-0.4l0,0c0-0.1-0.1-0.1-0.2-0.2c0,0,0,0,0-0.1s-0.1-0.1-0.2-0.2c0,0,0,0,0-0.1c-0.2-0.2-0.3-0.2-0.5-0.4
		c0,0,0,0,0-0.1s-0.1-0.1-0.2-0.2c0,0,0,0,0-0.1s-0.1-0.1-0.2-0.2c0,0,0,0,0-0.1s-0.1-0.1-0.3-0.1l0,0c-0.2-0.2-0.3-0.2-0.5-0.4l0,0
		c0-0.1-0.1-0.1-0.2-0.2c0,0,0,0,0-0.1s-0.1-0.1-0.2-0.2l0,0c-0.1-0.1-0.1-0.1-0.3-0.1l0,0c-0.1-0.1-0.2-0.2-0.3-0.1l0,0
		c0-0.1-0.1-0.1-0.3-0.1c0,0,0,0,0-0.1s-0.1-0.1-0.2-0.2c0,0,0,0,0-0.1s-0.1-0.1-0.2-0.2l0,0c-0.2-0.2-0.3-0.2-0.5-0.4
		c0,0,0,0-0.1-0.1c0-0.1-0.1-0.1-0.2-0.2c0,0,0,0-0.1-0.1c0-0.1-0.1-0.1-0.2-0.2c0,0,0,0-0.1-0.1s-0.1-0.1-0.3-0.1l0,0
		c-0.1-0.1-0.2-0.2-0.3-0.1l0,0c0-0.1-0.1-0.1-0.2-0.2c0,0,0,0,0-0.1s-0.1-0.1-0.2-0.2c0,0,0,0-0.1-0.1c0-0.1-0.1-0.1-0.2-0.2
		c0,0,0,0,0-0.1c-0.1-0.1-0.1-0.1-0.3-0.1l0,0c0-0.1-0.1-0.1-0.3-0.1c0,0,0,0-0.1-0.1c0-0.1-0.1-0.1-0.2-0.2c0,0,0-0.1-0.1-0.1
		c0-0.1-0.1-0.1-0.2-0.2c0,0,0,0-0.1-0.1c0-0.1-0.1-0.1-0.3-0.1l0,0c-0.1-0.1-0.1-0.1-0.3-0.1c0,0,0,0-0.1-0.1
		c0-0.1-0.1-0.1-0.2-0.2c0,0,0-0.1-0.1-0.1c0-0.1-0.1-0.1-0.2-0.2c0,0,0,0-0.1-0.1c0-0.1-0.1-0.1-0.2-0.2c0,0,0,0-0.1-0.1
		s-0.1-0.1-0.3-0.1l0,0c0-0.1-0.1-0.1-0.2-0.2c0,0,0-0.1-0.1-0.1c0-0.1-0.1-0.1-0.1-0.1s0-0.1-0.1-0.1c0-0.1-0.1-0.1-0.1-0.1
		s0-0.1-0.1-0.1c0-0.1-0.1-0.1-0.2-0.2l0,0c-0.1-0.1-0.1-0.1-0.3-0.1c0,0,0-0.1-0.1-0.1c0-0.1-0.1-0.1-0.1-0.1s0-0.1-0.1-0.1
		l-0.1-0.1c0,0,0-0.1-0.1-0.1c0-0.1-0.1-0.1-0.2-0.2c0,0,0,0-0.1-0.1s-0.1-0.1-0.3-0.1c0,0,0,0-0.1-0.1c0-0.1-0.1-0.1-0.2-0.2
		c0,0,0-0.1-0.1-0.1l-0.1-0.1c0,0,0-0.1-0.1-0.1c0-0.1-0.1-0.1-0.1-0.1s0-0.1-0.1-0.1c0-0.1-0.1-0.1-0.2-0.2l-0.1-0.1
		c0-0.1-0.1-0.1-0.3-0.1c0,0,0-0.1-0.1-0.1c0-0.1-0.1-0.1-0.1-0.1l-0.1-0.1l-0.1-0.1l-0.1-0.1l-0.1-0.1l-0.1-0.1
		c0-0.1-0.1-0.1-0.3-0.1l-0.1-0.1l-0.1-0.1l-0.1-0.1l-0.1-0.1l-0.1-0.1l-0.1-0.1l-0.1-0.1l-0.1-0.1l-0.1-0.1l-0.1-0.1l-0.1-0.1
		l-0.1-0.1l-0.1-0.1l-0.1-0.1l-0.1-0.1l-0.1-0.1l-0.1-0.1c-0.1-0.1-0.1-0.1-0.3-0.1c0,0,0,0-0.1-0.1l-0.1-0.1l-0.1-0.1l-0.1-0.1
		l-0.1-0.1l-0.1-0.1l-0.1-0.1l-0.1-0.1l-0.1-0.1c0,0-0.1-0.1-0.2-0.2l-0.1-0.1l-0.1-0.1l-0.1-0.1l-0.1-0.1l-0.1-0.1l-0.1-0.1
		l-0.1-0.1c-0.1-0.1-0.1-0.1-0.3-0.1l-0.1-0.1l-0.1-0.1l-0.1-0.1l-0.1-0.1l-0.1-0.1l-0.1-0.1l-0.1-0.1l-0.1-0.1l-0.1-0.1l-0.1-0.1
		l-0.1-0.1l-0.1-0.1l-0.1-0.1l-0.1-0.1l-0.1-0.1l-0.1-0.1l-0.1-0.1l-0.1-0.1c-0.1-0.1-0.1-0.1-0.2-0.2l-0.1-0.1l-0.1-0.1l-0.1-0.1
		l-0.1-0.1l-0.1-0.1l-0.1-0.1c0,0,0,0-0.1-0.1s-0.2-0.2-0.3-0.2c0,0,0,0-0.1-0.1l-0.1-0.1l-0.1-0.1l-0.1-0.1l-0.1-0.1l-0.1-0.1
		c0,0,0-0.1-0.1-0.1l-0.1-0.1c-0.1-0.1-0.1-0.1-0.3-0.1l-0.1-0.1l-0.1-0.1L629,56l-0.1-0.1l-0.1-0.1c0,0,0,0-0.1-0.1l-0.1-0.1l0,0
		c-0.1-0.1-0.3-0.1-0.4-0.2l0,0l-0.1-0.1c0,0,0-0.1-0.1-0.1l-0.1-0.1c0,0,0,0-0.1-0.1l-0.1-0.1c0,0,0,0-0.1-0.1
		c-0.2-0.2-0.4-0.2-0.5-0.4c0,0,0,0,0-0.1l-0.1-0.1c0,0,0,0-0.1-0.1l-0.1-0.1c0,0,0,0-0.1-0.1l-0.1-0.1l0,0
		c-0.1-0.1-0.3-0.1-0.4-0.2l0,0c0,0-0.1-0.1-0.2-0.2c0,0,0,0,0-0.1l-0.1-0.1c0,0,0,0-0.1-0.1l-0.1-0.1l0,0c-0.3-0.1-0.4-0.2-0.6-0.3
		l0,0c0-0.1-0.1-0.1-0.2-0.2l0,0c0-0.1-0.1-0.1-0.2-0.2l0,0c-0.3-0.1-0.5-0.4-0.8-0.5l0,0c0-0.1-0.1-0.1-0.2-0.2l0,0
		c0-0.1-0.1-0.1-0.2-0.2l0,0c-0.3-0.1-0.4-0.3-0.6-0.3l0,0c0-0.1-0.1-0.1-0.2-0.2l0,0c0-0.1-0.1-0.1-0.2-0.2l0,0
		c-0.3-0.1-0.4-0.3-0.6-0.3l0,0c0-0.1-0.1-0.1-0.2-0.2l0,0c0-0.1-0.1-0.1-0.2-0.2l0,0c0-0.1-0.1-0.1-0.2-0.2l0,0
		c-0.3-0.1-0.4-0.3-0.6-0.3l0,0c-0.1-0.1-0.1-0.1-0.2-0.2l0,0c0-0.1-0.1-0.1-0.2-0.2l0,0c-0.3-0.1-0.5-0.4-0.9-0.5l0,0
		c-0.1-0.1-0.1-0.1-0.3-0.1l0,0c-0.4-0.2-0.8-0.4-1.1-0.6l0,0c-0.4-0.2-0.8-0.4-1.1-0.6l0,0c-0.1-0.1-0.1-0.1-0.3-0.1l0,0
		c-22.4-12.6-46-23.1-70.4-31.3l-26.8,79.6c32.9,11.1,63.7,27.2,91.5,47.9L659,81.5z M25.2,290.8c-10.7,33-17.4,67.9-19.5,104l0,0
		c0,0.3,0,0.7-0.1,1l0,0c0,0.1,0,0.2,0,0.2l0,0c0,0.3,0,0.7-0.1,1l0,0c0,0.1,0,0.2,0,0.2l0,0c0,0.2,0,0.5,0,0.7l0,0
		c0,0.1,0,0.1,0,0.2c0,0,0,0,0,0.1s0,0.1,0,0.2l0,0c0,0.2,0,0.3,0,0.5l0,0c0,0.1,0,0.1,0,0.2v0.1c0,0.1,0,0.1,0,0.2v0.1
		c0,0.2,0,0.4,0,0.6v0.1c0,0.1,0,0.1,0,0.2v0.1c0,0.1,0,0.1,0,0.2s0,0.1,0,0.1c0,0.1,0,0.2,0,0.3c0,0.1,0,0.1,0,0.1
		c0,0.1,0,0.1,0,0.2v0.1v0.1c0,0.1,0,0.1,0,0.2v0.1c0,0.1,0,0.2,0,0.3v0.1c0,0.1,0,0.1,0,0.2v0.1c0,0.1,0,0.1,0,0.2v0.1
		c0,0.1,0,0.1,0,0.2v0.1c0,0.1,0,0.2,0,0.3v0.1c0,0.1,0,0.1,0,0.2v0.1c0,0.1,0,0.1,0,0.2v0.1c0,0.1,0,0.2,0,0.3c0,0,0,0,0,0.1
		s0,0.2,0,0.3v0.1c0,0.1,0,0.1,0,0.2v0.1c0,0.1,0,0.2,0,0.2s0,0,0,0.1s0,0.2,0,0.3c0,0,0,0,0,0.1s0,0.2,0,0.3v0.1c0,0.1,0,0.2,0,0.2
		v0.1c0,0.2,0,0.4,0,0.6c0,0,0,0,0,0.1s0,0.2,0,0.2s0,0,0,0.1s0,0.2,0,0.3l0,0c0,0.2,0,0.4,0,0.6l0,0c0,0.1,0,0.2,0,0.3l0,0
		c0,0.3,0,0.7,0,1l0,0c-0.1,2.8-0.1,5.6-0.1,8.5h84c0-34.9,5.4-69.2,16.1-102L25.2,290.8z M105,520.7l-79.9,25.9
		c4.1,12.7,8.8,25.2,14.1,37.3l0,0c0.2,0.4,0.3,0.8,0.5,1.2l0,0c0,0.1,0.1,0.1,0.1,0.2l0,0c0.1,0.3,0.3,0.6,0.4,0.9l0,0
		c0,0.1,0.1,0.1,0.1,0.2l0,0c0.1,0.3,0.3,0.6,0.4,0.9l0,0c0,0.1,0.1,0.1,0.1,0.2c0,0,0,0,0,0.1s0.1,0.1,0.1,0.2l0,0
		c0.1,0.2,0.2,0.4,0.3,0.6c0,0,0,0,0,0.1s0.1,0.1,0.1,0.2c0,0,0,0,0,0.1s0.1,0.1,0.1,0.2c0,0,0,0,0,0.1c0.1,0.2,0.2,0.4,0.3,0.6
		c0,0,0,0,0,0.1s0.1,0.1,0.1,0.2c0,0,0,0,0,0.1s0.1,0.1,0.1,0.2v0.1c0,0.1,0.1,0.1,0.1,0.2c0,0,0,0,0,0.1c0.1,0.1,0.1,0.2,0.2,0.3
		v0.1c0,0.1,0,0.1,0.1,0.2v0.1c0,0,0,0.1,0.1,0.1c0,0,0,0.1,0.1,0.1c0,0.1,0,0.1,0.1,0.1v0.1c0,0.1,0.1,0.2,0.1,0.2s0,0.1,0.1,0.1
		c0,0,0,0.1,0.1,0.1c0,0,0,0.1,0.1,0.1c0,0,0,0.1,0.1,0.1c0,0,0,0.1,0.1,0.1c0,0,0,0.1,0.1,0.1c0,0,0,0.1,0.1,0.1c0,0,0,0.1,0.1,0.1
		c0,0.1,0.1,0.2,0.1,0.2s0,0.1,0.1,0.1c0,0,0,0.1,0.1,0.1c0,0,0,0.1,0.1,0.1c0,0,0,0.1,0.1,0.1c0,0,0,0.1,0.1,0.1
		c0,0.1,0,0.1,0.1,0.1v0.1c0,0.1,0.1,0.2,0.1,0.2v0.1c0,0.1,0.1,0.1,0.1,0.2v0.1c0,0,0.1,0.1,0.1,0.2c0,0,0,0.1,0.1,0.1
		c0,0.1,0,0.1,0.1,0.2v0.1c0,0.1,0.1,0.2,0.1,0.2s0,0,0,0.1s0.1,0.1,0.1,0.2v0.1c0,0.1,0.1,0.1,0.1,0.2v0.1c0,0.1,0.1,0.1,0.1,0.2
		v0.1c0,0.1,0.1,0.2,0.1,0.2l0,0c0,0.1,0.1,0.2,0.1,0.3c0,0,0,0,0,0.1s0.1,0.1,0.1,0.2v0.1c0,0.1,0.1,0.1,0.1,0.2v0.1
		c0,0.1,0.1,0.2,0.1,0.2l0,0c0,0.1,0.1,0.2,0.1,0.3l0,0c0,0.1,0.1,0.1,0.1,0.2v0.1c0,0.1,0.1,0.1,0.1,0.2c0,0,0,0,0,0.1
		s0.1,0.1,0.1,0.2l0,0c0.1,0.2,0.2,0.4,0.3,0.5c0,0,0,0,0,0.1s0.1,0.1,0.1,0.2c0,0,0,0,0,0.1s0.1,0.2,0.1,0.2l0,0
		c0.1,0.2,0.2,0.4,0.3,0.5l0,0c0,0.1,0.1,0.2,0.1,0.2s0,0,0,0.1s0.1,0.2,0.1,0.2l0,0c0.1,0.2,0.2,0.4,0.3,0.5l0,0
		c0,0.1,0.1,0.2,0.1,0.2l0,0c0,0.1,0.1,0.2,0.1,0.2l0,0c0.1,0.3,0.3,0.5,0.4,0.8l0,0c0,0.1,0.1,0.2,0.1,0.3l0,0
		c0.1,0.3,0.3,0.5,0.4,0.8l0,0c0,0.1,0.1,0.2,0.1,0.3l0,0c0.2,0.4,0.4,0.7,0.6,1.1l0,0c0.2,0.4,0.4,0.7,0.6,1.1l0,0
		c0.4,0.8,0.9,1.7,1.3,2.5l0,0c0.2,0.4,0.4,0.7,0.6,1.1l0,0c0.2,0.4,0.4,0.7,0.6,1.1l0,0c0,0.1,0.1,0.2,0.1,0.3l0,0
		c0.1,0.3,0.3,0.5,0.4,0.8l0,0c0,0.1,0.1,0.2,0.1,0.3l0,0c0.2,0.4,0.4,0.7,0.6,1.1l0,0c0.2,0.4,0.4,0.7,0.6,1.1l0,0
		c0.2,0.4,0.4,0.7,0.6,1.1l0,0c0,0.1,0.1,0.2,0.1,0.3l0,0c0.1,0.3,0.3,0.5,0.4,0.8l0,0c0.2,0.4,0.4,0.7,0.6,1.1l0,0
		c0.1,0.1,0.1,0.2,0.1,0.3l0,0c0.7,1.2,1.3,2.4,2,3.5l0,0c0.2,0.3,0.3,0.5,0.5,0.8l0,0c0.1,0.1,0.1,0.2,0.1,0.3l0,0
		c0.2,0.4,0.4,0.7,0.6,1.1l0,0c0.2,0.4,0.4,0.7,0.6,1.1l0,0c0.1,0.1,0.1,0.2,0.1,0.2l0,0c0.2,0.3,0.3,0.5,0.5,0.8l0,0
		c0,0.1,0.1,0.2,0.1,0.2l0,0c0.1,0.1,0.1,0.2,0.1,0.2l0,0c0.1,0.2,0.2,0.3,0.3,0.5l0,0c0,0.1,0.1,0.2,0.1,0.2l0,0
		c0,0.1,0.1,0.2,0.1,0.2l0,0c0.1,0.2,0.2,0.3,0.3,0.5l0,0c0,0.1,0.1,0.2,0.1,0.2s0,0,0,0.1s0.1,0.1,0.1,0.2c0,0,0,0,0,0.1
		c0.1,0.2,0.2,0.3,0.3,0.5l0,0c0,0.1,0.1,0.1,0.1,0.2c0,0,0,0,0,0.1s0.1,0.1,0.1,0.2c0,0,0,0,0,0.1s0.1,0.2,0.1,0.2l0,0
		c0.1,0.1,0.1,0.2,0.2,0.3l0,0c0,0.1,0.1,0.1,0.1,0.2c0,0,0,0,0,0.1s0.1,0.1,0.1,0.2v0.1c0,0.1,0.1,0.1,0.1,0.2l0,0
		c0.1,0.1,0.1,0.2,0.2,0.3l0,0c0,0.1,0.1,0.1,0.1,0.2v0.1c0,0.1,0.1,0.1,0.1,0.2c0,0,0,0.1,0.1,0.1c0,0.1,0.1,0.1,0.1,0.2v0.1
		c0,0.1,0.1,0.2,0.1,0.2l0,0c0,0.1,0.1,0.1,0.1,0.2c0,0,0,0.1,0.1,0.1c0,0.1,0.1,0.1,0.1,0.2c0,0,0,0.1,0.1,0.1
		c0,0.1,0.1,0.1,0.1,0.2c0,0,0,0.1,0.1,0.1c0,0.1,0.1,0.1,0.1,0.2c0,0,0,0,0,0.1s0.1,0.2,0.1,0.2s0,0.1,0.1,0.1
		c0,0.1,0.1,0.1,0.1,0.2c0,0,0,0.1,0.1,0.1c0,0,0.1,0.1,0.1,0.2c0,0,0,0.1,0.1,0.1c0,0.1,0.1,0.1,0.1,0.2l0,0
		c0.1,0.1,0.1,0.2,0.1,0.2v0.1c0,0.1,0.1,0.1,0.1,0.2c0,0,0,0.1,0.1,0.1l0.1,0.1c0,0,0,0.1,0.1,0.1c0,0.1,0.1,0.1,0.1,0.2
		c0,0,0,0.1,0.1,0.1c0,0.1,0.1,0.2,0.1,0.2s0,0.1,0.1,0.1c0,0.1,0.1,0.1,0.1,0.1s0,0.1,0.1,0.1l0.1,0.1c0,0,0,0.1,0.1,0.1l0.1,0.1
		l0.1,0.1c0,0,0,0.1,0.1,0.1c0,0.1,0.1,0.2,0.1,0.2s0,0.1,0.1,0.1l0.1,0.1c0,0,0,0.1,0.1,0.1l0.1,0.1c0,0,0,0.1,0.1,0.1l0.1,0.1
		c0,0,0,0.1,0.1,0.1c0.1,0.1,0.1,0.2,0.2,0.3c0,0,0,0.1,0.1,0.1l0.1,0.1c0,0,0,0.1,0.1,0.1l0.1,0.1c0,0,0,0.1,0.1,0.1
		c0,0.1,0.1,0.1,0.1,0.2c0,0,0,0,0,0.1c0.1,0.2,0.2,0.4,0.3,0.5c0,0,0,0,0,0.1s0.1,0.1,0.1,0.2c0,0,0,0,0,0.1s0.1,0.1,0.1,0.2l0,0
		c0.1,0.2,0.2,0.4,0.4,0.6l0,0c0,0.1,0.1,0.1,0.1,0.2l0,0c0,0.1,0.1,0.1,0.1,0.2l0,0c0.2,0.3,0.4,0.6,0.5,0.8l0,0
		c0.3,0.4,0.5,0.8,0.8,1.3l0,0c4,6.2,8.2,12.3,12.5,18.3l68-49.4C131.4,584.5,115.6,553.6,105,520.7z M520.5,732.9
		c-32.7,10.6-66.9,15.9-101.6,15.9h-0.3l-0.1,84h0.1c0.1,0,0.2,0,0.3,0l0,0l0,0c0.1,0,0.2,0,0.3,0h0.1c0.1,0,0.1,0,0.2,0h0.1
		c0.1,0,0.2,0,0.2,0s0,0,0.1,0s0.2,0,0.3,0c0,0,0,0,0.1,0s0.2,0,0.2,0h0.1c0.1,0,0.1,0,0.2,0h0.1c0.1,0,0.2,0,0.3,0l0,0
		c0.1,0,0.2,0,0.3,0h0.1c0.1,0,0.1,0,0.2,0h0.1c0.1,0,0.2,0,0.2,0s0,0,0.1,0s0.2,0,0.3,0c0,0,0,0,0.1,0s0.2,0,0.3,0h0.1
		c0.1,0,0.1,0,0.2,0h0.1c0.1,0,0.2,0,0.3,0l0,0c0.1,0,0.2,0,0.3,0h0.1c0.1,0,0.1,0,0.2,0h0.1c0.1,0,0.1,0,0.2,0h0.1
		c0.1,0,0.2,0,0.3,0c0,0,0,0,0.1,0s0.2,0,0.2,0h0.1c0.1,0,0.1,0,0.2,0h0.1c0.1,0,0.2,0,0.3,0l0,0c0.1,0,0.2,0,0.3,0h0.1
		c0.1,0,0.1,0,0.2,0h0.1c0.1,0,0.1,0,0.2,0c0,0,0,0,0.1,0s0.2,0,0.3,0l0,0c0.1,0,0.2,0,0.3,0h0.1c0.1,0,0.1,0,0.2,0h0.1
		c0.1,0,0.2,0,0.3,0l0,0c0.1,0,0.2,0,0.3,0h0.1c0.1,0,0.1,0,0.2,0h0.1c0.1,0,0.1,0,0.2,0h0.1c0.1,0,0.2,0,0.3,0h0.1
		c0.1,0,0.1,0,0.2,0h0.1c0.1,0,0.1,0,0.2,0h0.1c0.1,0,0.2,0,0.2,0l0,0c0.1,0,0.2,0,0.3,0h0.1c0.1,0,0.1,0,0.2,0h0.1
		c0.1,0,0.1,0,0.2,0h0.1c0.1,0,0.2,0,0.3,0c0,0,0,0,0.1,0s0.1,0,0.2,0h0.1c0.1,0,0.1,0,0.2,0h0.1c0.1,0,0.2,0,0.3,0l0,0
		c0.1,0,0.2,0,0.3,0h0.1c0.1,0,0.1,0,0.2,0h0.1c0.1,0,0.1,0,0.2,0h0.1c0.1,0,0.2,0,0.3,0c0,0,0,0,0.1,0s0.2,0,0.2,0h0.1
		c0.1,0,0.1,0,0.2,0h0.1c0.1,0,0.2,0,0.3,0l0,0c0.1,0,0.2,0,0.3,0h0.1c0.1,0,0.1,0,0.2,0h0.1c0.1,0,0.1,0,0.2,0h0.1
		c0.1,0,0.2,0,0.3,0c0,0,0,0,0.1,0s0.2,0,0.2,0h0.1c0.1,0,0.1,0,0.2,0h0.1c0.1,0,0.1,0,0.2,0c0,0,0,0,0.1,0s0.2,0,0.3,0h0.1
		c0.1,0,0.1,0,0.2,0h0.1c0.1,0,0.1,0,0.2,0h0.1c0.1,0,0.2,0,0.3,0h0.1c0.1,0,0.1,0,0.2,0h0.1c0.1,0,0.1,0,0.2,0h0.1
		c0.1,0,0.2,0,0.2,0h0.1c0.1,0,0.2,0,0.3,0h0.1c0.1,0,0.1,0,0.2,0h0.1c0.1,0,0.1,0,0.2,0h0.1c0.1,0,0.2,0,0.3,0h0.1
		c0.1,0,0.1,0,0.2,0h0.1c0.1,0,0.1,0,0.2,0h0.1c0.1,0,0.1,0,0.2,0h0.1c0.1,0,0.2,0,0.3,0h0.1c0.1,0,0.1,0,0.2,0h0.1
		c0.1,0,0.1,0,0.2,0h0.1c0.1,0,0.2,0,0.3,0h0.1c0.1,0,0.1,0,0.2,0h0.1c0.1,0,0.1,0,0.2,0h0.1c0.1,0,0.1,0,0.2,0h0.1
		c0.1,0,0.2,0,0.3,0h0.1c0.1,0,0.1,0,0.2,0h0.1c0.1,0,0.1,0,0.2,0h0.1c0.1,0,0.2,0,0.3,0c0,0,0,0,0.1,0s0.1,0,0.2,0h0.1
		c0.1,0,0.1,0,0.2,0h0.1c0.1,0,0.1,0,0.2,0h0.1c0.1,0,0.2,0,0.3,0h0.1c0.1,0,0.1,0,0.2,0h0.1c0.1,0,0.1,0,0.2,0h0.1
		c0.1,0,0.2,0,0.3,0h0.1c0.1,0,0.1,0,0.2,0h0.1c0.1,0,0.1,0,0.2,0h0.1c0.1,0,0.1,0,0.2,0h0.1c0.1,0,0.2,0,0.3,0h0.1
		c0.1,0,0.1,0,0.2,0h0.1c0.1,0,0.1,0,0.2,0h0.1c0.1,0,0.2,0,0.2,0c0.1,0,0.1,0,0.1,0c0.1,0,0.1,0,0.2,0h0.1c0.1,0,0.1,0,0.2,0h0.1
		c0.1,0,0.1,0,0.2,0h0.1c0.1,0,0.2,0,0.3,0h0.1c0.1,0,0.1,0,0.2,0h0.1c0.1,0,0.1,0,0.2,0h0.1c0.1,0,0.2,0,0.2,0h0.1
		c0.1,0,0.1,0,0.2,0h0.1c0.1,0,0.1,0,0.2,0h0.1c0.1,0,0.1,0,0.2,0h0.1c0.1,0,0.2,0,0.3,0h0.1c0.1,0,0.1,0,0.2,0h0.1
		c0.1,0,0.1,0,0.2,0h0.1c0.1,0,0.1,0,0.2,0c0.1,0,0.1,0,0.2,0c0.1,0,0.1,0,0.2,0h0.1c0.1,0,0.1,0,0.2,0h0.1c0.1,0,0.1,0,0.2,0h0.1
		c0.1,0,0.2,0,0.3,0h0.1h0.1c0.1,0,0.1,0,0.2,0c0.1,0,0.1,0,0.1,0h0.1c0.1,0,0.1,0,0.2,0c0.1,0,0.1,0,0.2,0c0.1,0,0.1,0,0.2,0h0.1
		c0.1,0,0.1,0,0.2,0h0.1c0,0,0.1,0,0.2,0h0.1c0.1,0,0.2,0,0.3,0s0.1,0,0.2,0h0.1c0.1,0,0.1,0,0.2,0h0.1c0.1,0,0.1,0,0.2,0
		c0.1,0,0.1,0,0.2,0c0.1,0,0.2,0,0.2,0c0.1,0,0.1,0,0.2,0c0.1,0,0.1,0,0.1,0c0.1,0,0.1,0,0.1,0c0.1,0,0.1,0,0.1,0h0.1
		c0.1,0,0.1,0,0.1,0c0.1,0,0.2,0,0.2,0c0.1,0,0.1,0,0.2,0h0.1c0.1,0,0.1,0,0.2,0h0.1c0.1,0,0.1,0,0.2,0h0.1c0.1,0,0.2,0,0.3,0
		s0.1,0,0.1,0c0.1,0,0.1,0,0.2,0h0.1c0.1,0,0.1,0,0.2,0h0.1c0.1,0,0.1,0,0.2,0h0.1c0.1,0,0.2,0,0.3,0h0.1c0.1,0,0.1,0,0.2,0h0.1
		c0.1,0,0.1,0,0.2,0h0.1c0.1,0,0.2,0,0.3,0s0.1,0,0.1,0c0.1,0,0.1,0,0.2,0h0.1c0.1,0,0.1,0,0.2,0h0.1c0.1,0,0.1,0,0.2,0
		c0,0,0,0,0.1,0s0.2,0,0.4,0h0.1c0.1,0,0.1,0,0.2,0h0.1c0.1,0,0.1,0,0.2,0h0.1c0.1,0,0.2,0,0.3,0h0.1c0.1,0,0.1,0,0.2,0h0.1
		c0.1,0,0.1,0,0.2,0h0.1c0.1,0,0.1,0,0.2,0l0,0c0.1,0,0.3,0,0.4,0h0.1c0.1,0,0.1,0,0.2,0h0.1c0.1,0,0.1,0,0.2,0h0.1
		c0.1,0,0.2,0,0.3,0c0,0,0,0,0.1,0s0.1,0,0.2,0h0.1c0.1,0,0.1,0,0.2,0h0.1c0.2,0,0.4,0,0.6-0.1h0.1c0.1,0,0.1,0,0.2,0h0.1
		c0.1,0,0.1,0,0.2,0h0.1c0.1,0,0.3,0,0.4,0c0,0,0,0,0.1,0s0.1,0,0.2,0h0.1c0.1,0,0.1,0,0.2,0h0.1c0.2,0,0.4-0.1,0.6-0.1h0.1
		c0.1,0,0.1,0,0.2,0h0.1c0.1,0,0.1,0,0.2,0c0,0,0,0,0.1,0c0.2,0,0.4-0.1,0.7-0.1c0,0,0,0,0.1,0s0.1,0,0.2,0c0,0,0,0,0.1,0
		c0.2,0,0.4-0.1,0.7-0.1c0,0,0,0,0.1,0s0.1,0,0.2,0c0,0,0,0,0.1,0s0.1,0,0.2,0c0,0,0,0,0.1,0c0.2,0,0.3,0,0.5-0.1l0,0
		c0.1,0,0.1,0,0.2,0c0,0,0,0,0.1,0s0.1,0,0.2,0h0.1c0.2,0,0.4-0.1,0.7-0.1l0,0c0.1,0,0.1,0,0.2,0h0.1c0.1,0,0.1,0,0.2,0l0,0
		c0.2,0,0.4-0.1,0.7-0.1c0,0,0,0,0.1,0s0.1,0,0.2,0c0,0,0,0,0.1,0c0.2,0,0.4-0.1,0.7-0.1l0,0c0.1,0,0.1,0,0.2,0c0,0,0,0,0.1,0
		s0.1,0,0.2,0l0,0c0.2,0,0.5-0.1,0.7-0.1c0,0,0,0,0.1,0s0.1,0,0.2,0l0,0c0.2,0,0.5-0.1,0.7-0.1l0,0c0.1,0,0.1,0,0.2,0l0,0
		c0.1,0,0.2,0,0.2,0l0,0c0.2,0,0.5-0.1,0.7-0.1c0,0,0,0,0.1,0s0.1,0,0.2,0l0,0c0.2,0,0.5-0.1,0.7-0.1l0,0c0.1,0,0.1,0,0.2,0
		c0,0,0,0,0.1,0s0.1,0,0.2,0l0,0c0.2,0,0.5-0.1,0.7-0.1l0,0c0.1,0,0.1,0,0.2,0l0,0c0.3-0.1,0.6-0.1,0.9-0.2c0,0,0,0,0.1,0
		c0.3-0.1,0.6-0.1,1-0.2l0,0c0.1,0,0.2,0,0.2,0l0,0c0.3-0.1,0.6-0.1,1-0.2l0,0c0.1,0,0.2,0,0.2,0l0,0c0.3-0.1,0.7-0.1,1-0.2l0,0
		c0.3-0.1,0.7-0.1,1-0.2l0,0c0.7-0.1,1.5-0.3,2.2-0.4l0,0c0.4-0.1,0.8-0.1,1.2-0.2l0,0c0.3-0.1,0.7-0.1,1-0.2l0,0
		c17.5-3.3,34.6-7.6,51.2-13L520.5,732.9z M685.6,613.1c-20.5,28-45.1,52.6-73.2,73l49.3,68c35.1-25.5,66.1-56.4,91.7-91.4
		L685.6,613.1z M748.8,419.4c-0.1,34.9-5.5,69.2-16.2,101.9l79.9,26.1c13.1-40.3,20.3-83.2,20.3-127.9L748.8,419.4z M754.2,176.2
		l-68,49.3c20.4,28.1,36.1,59,46.7,91.9l79.9-25.8C799.4,249.8,779.4,211,754.2,176.2L754.2,176.2z M418.9,5v84h0.7l0.2-84
		c-0.1,0-0.3,0-0.4,0l0,0h-0.1C419.1,5,419,5,418.9,5L418.9,5z"/>
	<path id="path10" inkscape:connector-curvature="0" class="st1" d="M418.9,128.1c39.3,0,77.3,7.7,113.2,22.8
		c34.6,14.6,65.7,35.6,92.4,62.3c26.7,26.7,47.7,57.8,62.3,92.4c15.2,35.8,22.8,73.9,22.8,113.2s-7.7,77.3-22.8,113.2
		c-14.6,34.6-35.6,65.7-62.3,92.4c-26.7,26.7-57.8,47.7-92.4,62.3c-35.8,15.2-73.9,22.8-113.2,22.8s-77.3-7.7-113.2-22.8
		c-34.6-14.6-65.7-35.6-92.4-62.3c-26.7-26.7-47.7-57.8-62.3-92.4c-15.2-35.8-22.8-73.9-22.8-113.2s7.7-77.3,22.8-113.2
		c14.6-34.6,35.6-65.7,62.3-92.4s57.8-47.7,92.4-62.3C341.6,135.8,379.6,128.1,418.9,128.1 M418.9,121.1
		c-164.5,0-297.8,133.3-297.8,297.8s133.3,297.8,297.8,297.8s297.8-133.3,297.8-297.8S583.4,121.1,418.9,121.1L418.9,121.1z"/>
</g>
</svg>
